<?xml version="1.0" standalone="no"?>
<!DOCTYPE svg PUBLIC "-//W3C//DTD SVG 20010904//EN"
 "http://www.w3.org/TR/2001/REC-SVG-20010904/DTD/svg10.dtd">
<svg version="1.0" xmlns="http://www.w3.org/2000/svg"
 width="200.000000pt" height="57.142857pt" viewBox="0 0 200.000000 57.142857"
 preserveAspectRatio="xMidYMid meet">
<metadata>
Created by potrace 1.16, written by Peter Selinger 2001-2019
</metadata>
<g transform="translate(0.000000,57.142857) scale(0.119048,-0.119048)"
fill="#000000" stroke="none">
<path d="M0 240 l0 -240 840 0 840 0 0 240 0 240 -840 0 -840 0 0 -240z m713
81 c4 -1 7 -39 7 -86 0 -69 -3 -85 -15 -85 -12 0 -15 15 -15 75 0 60 -3 75
-15 75 -12 0 -15 -15 -15 -75 0 -60 -3 -75 -15 -75 -12 0 -15 15 -15 75 0 60
-3 75 -15 75 -12 0 -15 -15 -15 -76 0 -66 -2 -75 -17 -72 -15 3 -19 16 -21 74
-4 91 5 101 84 98 33 -1 62 -2 67 -3z m121 -7 c12 -11 16 -36 16 -90 0 -67 -2
-74 -20 -74 -16 0 -20 7 -20 30 0 20 -5 30 -15 30 -10 0 -15 -10 -15 -30 0
-20 -5 -30 -15 -30 -12 0 -15 16 -15 84 0 58 4 86 13 89 25 11 56 7 71 -9z
m493 -73 c3 -84 -1 -91 -59 -91 l-38 0 0 86 0 85 48 -3 47 -3 2 -74z"/>
</g>
</svg>
