<?xml version="1.0" standalone="no"?>
<!DOCTYPE svg PUBLIC "-//W3C//DTD SVG 20010904//EN"
 "http://www.w3.org/TR/2001/REC-SVG-20010904/DTD/svg10.dtd">
<svg version="1.0" xmlns="http://www.w3.org/2000/svg"
 width="168.000000pt" height="48.000000pt" viewBox="0 0 168.000000 48.000000"
 preserveAspectRatio="xMidYMid meet">
<metadata>
Created by potrace 1.10, written by Peter Selinger 2001-2011
</metadata>
<g transform="translate(0.000000,48.000000) scale(0.100000,-0.100000)"
fill="#000000" stroke="none">
<path d="M0 240 l0 -240 840 0 840 0 0 240 0 240 -840 0 -840 0 0 -240z m448
-7 c2 -69 0 -83 -13 -83 -10 0 -15 10 -15 30 0 23 -4 30 -20 30 -16 0 -20 -7
-20 -30 0 -20 -5 -30 -15 -30 -12 0 -15 15 -15 78 0 43 3 82 7 86 4 4 25 6 48
4 l40 -3 3 -82z m62 17 c0 -63 2 -70 20 -70 11 0 20 -7 20 -15 0 -10 -10 -15
-34 -15 l-35 0 -3 85 c-3 76 -1 85 15 85 14 0 17 -10 17 -70z m210 -16 c0 -68
-3 -84 -15 -84 -12 0 -15 15 -15 75 0 60 -3 75 -15 75 -12 0 -15 -15 -15 -75
0 -60 -3 -75 -15 -75 -12 0 -15 15 -15 75 0 60 -3 75 -15 75 -12 0 -15 -15
-15 -75 0 -60 -3 -75 -15 -75 -12 0 -15 16 -15 84 l0 85 75 0 75 0 0 -85z
m120 1 c0 -69 -3 -85 -15 -85 -10 0 -15 10 -15 30 0 20 -5 30 -15 30 -10 0
-15 -10 -15 -30 0 -20 -5 -30 -15 -30 -12 0 -15 16 -15 85 l0 85 45 0 45 0 0
-85z m180 50 c0 -28 4 -35 20 -35 16 0 20 7 20 35 0 24 5 35 15 35 12 0 15
-16 15 -85 0 -69 -3 -85 -15 -85 -10 0 -15 11 -15 35 0 28 -4 35 -20 35 -16 0
-20 -7 -20 -35 0 -24 -5 -35 -15 -35 -12 0 -15 16 -15 85 0 69 3 85 15 85 10
0 15 -11 15 -35z m126 -37 c-1 -59 2 -73 14 -73 12 0 16 16 18 73 2 55 6 72
17 72 12 0 15 -15 15 -69 0 -90 -5 -101 -44 -101 -47 0 -56 15 -56 97 0 65 2
73 19 73 16 0 18 -8 17 -72z m181 -3 c1 -38 -3 -76 -9 -82 -6 -7 -28 -13 -49
-13 l-39 0 0 86 0 85 48 -3 47 -3 2 -70z m-367 -15 c0 -5 -20 -10 -45 -10 -25
0 -45 5 -45 10 0 6 20 10 45 10 25 0 45 -4 45 -10z"/>
<path d="M384 297 c-9 -25 0 -62 16 -62 10 0 15 10 15 34 0 36 -21 54 -31 28z"/>
<path d="M786 303 c-3 -3 -6 -21 -6 -40 0 -23 5 -33 15 -33 10 0 15 10 15 34
0 34 -11 52 -24 39z"/>
<path d="M1260 275 c0 -18 5 -25 20 -25 15 0 20 7 20 25 0 18 -5 25 -20 25
-15 0 -20 -7 -20 -25z"/>
<path d="M1264 215 c-8 -21 3 -48 19 -43 19 7 22 58 2 58 -8 0 -18 -7 -21 -15z"/>
</g>
</svg>
